<svg width="363" height="332" viewBox="0 0 363 332" fill="none" xmlns="http://www.w3.org/2000/svg">
<path d="M58.1144 316.796H277.258C312.705 286.093 335.141 240.769 335.141 190.191C335.141 97.7098 260.17 22.7368 167.688 22.7368C75.2064 22.7368 0.231445 97.7088 0.231445 190.191C0.231445 240.769 22.6684 286.093 58.1144 316.796Z" fill="#F5F5F5"/>
<path d="M17.9463 59.3628H33.0963" stroke="#00425F" stroke-width="1.5924" stroke-miterlimit="10" stroke-linecap="round" stroke-linejoin="round"/>
<path d="M25.5215 66.9366V51.7876" stroke="#00425F" stroke-width="1.5924" stroke-miterlimit="10" stroke-linecap="round" stroke-linejoin="round"/>
<path d="M20.165 54.0068L30.877 64.7178" stroke="#00425F" stroke-width="1.5924" stroke-miterlimit="10" stroke-linecap="round" stroke-linejoin="round"/>
<path d="M20.165 64.7178L30.877 54.0068" stroke="#00425F" stroke-width="1.5924" stroke-miterlimit="10" stroke-linecap="round" stroke-linejoin="round"/>
<path d="M320.826 283.492H335.974" stroke="#00425F" stroke-width="1.5924" stroke-miterlimit="10" stroke-linecap="round" stroke-linejoin="round"/>
<path d="M328.399 291.065V275.917" stroke="#00425F" stroke-width="1.5924" stroke-miterlimit="10" stroke-linecap="round" stroke-linejoin="round"/>
<path d="M323.044 278.136L333.756 288.847" stroke="#00425F" stroke-width="1.5924" stroke-miterlimit="10" stroke-linecap="round" stroke-linejoin="round"/>
<path d="M323.044 288.847L333.756 278.136" stroke="#00425F" stroke-width="1.5924" stroke-miterlimit="10" stroke-linecap="round" stroke-linejoin="round"/>
<path d="M240.562 22.7134H252.459" stroke="#00425F" stroke-width="1.5924" stroke-miterlimit="10" stroke-linecap="round" stroke-linejoin="round"/>
<path d="M246.511 28.6622V16.7642" stroke="#00425F" stroke-width="1.5924" stroke-miterlimit="10" stroke-linecap="round" stroke-linejoin="round"/>
<path d="M242.303 18.5063L250.716 26.9203" stroke="#00425F" stroke-width="1.5924" stroke-miterlimit="10" stroke-linecap="round" stroke-linejoin="round"/>
<path d="M242.303 26.9203L250.716 18.5063" stroke="#00425F" stroke-width="1.5924" stroke-miterlimit="10" stroke-linecap="round" stroke-linejoin="round"/>
<path d="M0.795898 249.718H12.6929" stroke="#00425F" stroke-width="1.5924" stroke-miterlimit="10" stroke-linecap="round" stroke-linejoin="round"/>
<path d="M6.74414 255.667V243.769" stroke="#00425F" stroke-width="1.5924" stroke-miterlimit="10" stroke-linecap="round" stroke-linejoin="round"/>
<path d="M2.53809 245.511L10.9511 253.925" stroke="#00425F" stroke-width="1.5924" stroke-miterlimit="10" stroke-linecap="round" stroke-linejoin="round"/>
<path d="M2.53906 253.925L10.9511 245.511" stroke="#00425F" stroke-width="1.5924" stroke-miterlimit="10" stroke-linecap="round" stroke-linejoin="round"/>
<path d="M304.291 132.532H316.19" stroke="#00425F" stroke-width="1.5924" stroke-miterlimit="10" stroke-linecap="round" stroke-linejoin="round"/>
<path d="M310.24 138.482V126.583" stroke="#00425F" stroke-width="1.5924" stroke-miterlimit="10" stroke-linecap="round" stroke-linejoin="round"/>
<path d="M306.032 128.327L314.446 136.74" stroke="#00425F" stroke-width="1.5924" stroke-miterlimit="10" stroke-linecap="round" stroke-linejoin="round"/>
<path d="M306.032 136.74L314.446 128.327" stroke="#00425F" stroke-width="1.5924" stroke-miterlimit="10" stroke-linecap="round" stroke-linejoin="round"/>
<path d="M137.92 6.84424H159.357" stroke="#00425F" stroke-width="1.5924" stroke-miterlimit="10" stroke-linecap="round" stroke-linejoin="round"/>
<path d="M146.178 0.796387H167.247" stroke="#00425F" stroke-width="1.5924" stroke-miterlimit="10" stroke-linecap="round" stroke-linejoin="round"/>
<path d="M16.2119 283.91H37.6499" stroke="#00425F" stroke-width="1.5924" stroke-miterlimit="10" stroke-linecap="round" stroke-linejoin="round"/>
<path d="M24.4688 277.862H45.5408" stroke="#00425F" stroke-width="1.5924" stroke-miterlimit="10" stroke-linecap="round" stroke-linejoin="round"/>
<path d="M312.052 93.4194H333.49" stroke="#00425F" stroke-width="1.5924" stroke-miterlimit="10" stroke-linecap="round" stroke-linejoin="round"/>
<path d="M320.31 87.3716H341.38" stroke="#00425F" stroke-width="1.5924" stroke-miterlimit="10" stroke-linecap="round" stroke-linejoin="round"/>
<path d="M332.606 242.686H354.043" stroke="#00425F" stroke-width="1.5924" stroke-miterlimit="10" stroke-linecap="round" stroke-linejoin="round"/>
<path d="M340.864 236.639H361.934" stroke="#00425F" stroke-width="1.5924" stroke-miterlimit="10" stroke-linecap="round" stroke-linejoin="round"/>
<path d="M64.8545 51.7871H86.2915" stroke="#00425F" stroke-width="1.5924" stroke-miterlimit="10" stroke-linecap="round" stroke-linejoin="round"/>
<path d="M73.1123 45.7412H94.1823" stroke="#00425F" stroke-width="1.5924" stroke-miterlimit="10" stroke-linecap="round" stroke-linejoin="round"/>
<path d="M251.969 80.2012H273.406" stroke="#00425F" stroke-width="1.5924" stroke-miterlimit="10" stroke-linecap="round" stroke-linejoin="round"/>
<path d="M260.226 74.1543H281.296" stroke="#00425F" stroke-width="1.5924" stroke-miterlimit="10" stroke-linecap="round" stroke-linejoin="round"/>
<path d="M18.4287 118.805H39.8687" stroke="#00425F" stroke-width="1.5924" stroke-miterlimit="10" stroke-linecap="round" stroke-linejoin="round"/>
<path d="M26.6865 112.758H47.7595" stroke="#00425F" stroke-width="1.5924" stroke-miterlimit="10" stroke-linecap="round" stroke-linejoin="round"/>
<path d="M26.9814 316.795H311.486" stroke="#00425F" stroke-width="1.8588" stroke-miterlimit="10" stroke-linecap="round" stroke-linejoin="round"/>
<path d="M79.5195 322.595H185.689" stroke="#00425F" stroke-width="1.8588" stroke-miterlimit="10" stroke-linecap="round" stroke-linejoin="round"/>
<path d="M193.812 322.595H223.03" stroke="#00425F" stroke-width="1.8588" stroke-miterlimit="10" stroke-linecap="round" stroke-linejoin="round"/>
<path d="M228.68 322.595H252.443" stroke="#00425F" stroke-width="1.8588" stroke-miterlimit="10" stroke-linecap="round" stroke-linejoin="round"/>
<path d="M122.218 330.722H240.562" stroke="#00425F" stroke-width="1.8588" stroke-miterlimit="10" stroke-linecap="round" stroke-linejoin="round"/>
<path d="M167.842 313.496C240.978 313.496 300.267 254.208 300.267 181.071C300.267 107.935 240.978 48.6465 167.842 48.6465C94.7057 48.6465 35.417 107.935 35.417 181.071C35.417 254.208 94.7057 313.496 167.842 313.496Z" fill="white" stroke="#F5F5F5" stroke-width="3.0174" stroke-miterlimit="10" stroke-dasharray="4.53 4.53"/>
<path d="M213.504 251.59C213.504 264.298 203.204 274.598 190.496 274.598H140.526C127.82 274.598 117.517 264.298 117.517 251.59V160.806C117.517 148.1 132.027 125.18 144.733 125.18H186.291C198.997 125.18 213.505 148.1 213.505 160.806V251.59H213.504Z" fill="#26505D"/>
<path d="M198.343 266.085C185.479 270.143 169.06 270.22 157.653 262.102C143.635 252.124 139.735 234.047 137.665 217.952C135.279 199.415 136.692 180.513 140.091 162.177C142.413 149.668 145.731 136.293 152.467 125.181H144.732C132.026 125.181 117.516 148.101 117.516 160.807V251.591C117.516 264.299 127.819 274.599 140.525 274.599H190.495C200.138 274.599 208.386 268.665 211.81 260.252C207.298 262.741 202.687 264.715 198.343 266.085Z" fill="#183942"/>
<path opacity="0.3" d="M186.289 125.18H179.927V274.495H186.289V125.18Z" fill="white"/>
<path opacity="0.3" d="M178.313 125.18H176.085V274.495H178.313V125.18Z" fill="white"/>
<path d="M213.503 168.717H117.516V232.048H213.503V168.717Z" fill="white"/>
<path d="M206.065 205.199C196.439 214.333 183.328 218.48 170.207 215.996C154.728 213.065 140.03 202.938 133.014 188.651C129.91 182.323 128.098 175.576 127.451 168.715H117.517V232.046H213.504V195.872C211.447 199.27 208.989 202.421 206.065 205.199Z" fill="#B2B2B2"/>
<path d="M192.351 202.487C192.351 217.31 180.336 229.329 165.513 229.329C150.688 229.329 138.671 217.311 138.671 202.487C138.671 187.663 150.688 175.644 165.513 175.644C180.336 175.644 192.351 187.662 192.351 202.487Z" fill="white"/>
<path d="M190.04 202.886C190.04 216.434 179.058 227.415 165.509 227.415C151.963 227.415 140.981 216.434 140.981 202.886C140.981 189.337 151.963 178.355 165.509 178.355C179.057 178.355 190.04 189.337 190.04 202.886Z" fill="#00B1C3"/>
<path d="M179.445 196.102H169.413V184.213H161.61V196.102H151.573V203.906H161.61V221.557H169.413V203.906H179.445V196.102Z" fill="white"/>
<path opacity="0.3" d="M162.949 182.516C160.019 185.76 158.069 189.81 158.187 194.209C158.385 201.76 165.126 207.853 172.676 207.763C179.2 207.686 184.339 203.488 185.846 197.202C185.92 196.897 185.984 196.594 186.045 196.288C183.378 188.1 175.688 182.182 166.613 182.182C165.362 182.181 164.136 182.299 162.949 182.516Z" fill="white"/>
<path opacity="0.8" d="M170.232 211.948C160.458 210.682 151.836 202.328 152.319 192.11C152.524 187.789 153.954 183.734 156.221 180.18C147.28 183.842 140.98 192.627 140.98 202.887C140.98 216.435 151.962 227.416 165.508 227.416C179.057 227.416 190.039 216.435 190.039 202.887C190.039 202.446 190.025 202.006 190.003 201.573C186.46 208.934 178.359 212.994 170.232 211.948Z" fill="black" fill-opacity="0.25"/>
<path d="M188.518 116.271H142.503V125.179H188.518V116.271Z" fill="white"/>
<path d="M188.518 120.725H142.503V125.18H188.518V120.725Z" fill="#B2B2B2"/>
<path d="M194.823 114.787C194.823 115.607 194.159 116.271 193.341 116.271H137.678C136.859 116.271 136.194 115.607 136.194 114.787V92.5226C136.194 91.7046 136.859 91.0386 137.678 91.0386H193.342C194.159 91.0386 194.824 91.7046 194.824 92.5226V114.787H194.823Z" fill="#E74645"/>
<path d="M166.809 111.333C158.868 111.152 148.909 108.492 145.959 100.109C144.913 97.1436 144.719 94.0846 145.038 91.0386H137.678C136.859 91.0386 136.194 91.7046 136.194 92.5226V114.787C136.194 115.607 136.859 116.271 137.678 116.271H193.342C194.159 116.271 194.824 115.607 194.824 114.787V104.207C186.127 108.19 176.447 111.555 166.809 111.333Z" fill="#B03935"/>
<path d="M140.554 112.468C140.554 113.032 140.099 113.488 139.536 113.488C138.972 113.488 138.515 113.032 138.515 112.468V94.8438C138.515 94.2807 138.972 93.8228 139.536 93.8228C140.099 93.8228 140.554 94.2818 140.554 94.8438V112.468Z" fill="black" fill-opacity="0.3"/>
<path d="M144.265 112.468C144.265 113.032 143.809 113.488 143.245 113.488C142.681 113.488 142.225 113.032 142.225 112.468V94.8438C142.225 94.2807 142.681 93.8228 143.245 93.8228C143.809 93.8228 144.265 94.2818 144.265 94.8438V112.468Z" fill="black" fill-opacity="0.3"/>
<path d="M147.977 112.468C147.977 113.032 147.519 113.488 146.957 113.488C146.392 113.488 145.935 113.032 145.935 112.468V94.8438C145.935 94.2807 146.392 93.8228 146.957 93.8228C147.52 93.8228 147.977 94.2818 147.977 94.8438V112.468Z" fill="black" fill-opacity="0.3"/>
<path d="M151.689 112.468C151.689 113.032 151.231 113.488 150.666 113.488C150.103 113.488 149.646 113.032 149.646 112.468V94.8438C149.646 94.2807 150.103 93.8228 150.666 93.8228C151.23 93.8228 151.689 94.2818 151.689 94.8438V112.468Z" fill="black" fill-opacity="0.3"/>
<path d="M155.398 112.468C155.398 113.032 154.94 113.488 154.376 113.488C153.816 113.488 153.356 113.032 153.356 112.468V94.8438C153.356 94.2807 153.816 93.8228 154.376 93.8228C154.94 93.8228 155.398 94.2818 155.398 94.8438V112.468Z" fill="black" fill-opacity="0.3"/>
<path d="M159.108 112.468C159.108 113.032 158.651 113.488 158.088 113.488C157.522 113.488 157.067 113.032 157.067 112.468V94.8438C157.067 94.2807 157.522 93.8228 158.088 93.8228C158.651 93.8228 159.108 94.2818 159.108 94.8438V112.468Z" fill="black" fill-opacity="0.3"/>
<path d="M162.821 112.468C162.821 113.032 162.363 113.488 161.798 113.488C161.235 113.488 160.777 113.032 160.777 112.468V94.8438C160.777 94.2807 161.235 93.8228 161.798 93.8228C162.362 93.8228 162.821 94.2818 162.821 94.8438V112.468Z" fill="black" fill-opacity="0.3"/>
<path d="M166.531 112.468C166.531 113.032 166.074 113.488 165.509 113.488C164.945 113.488 164.489 113.032 164.489 112.468V94.8438C164.489 94.2807 164.945 93.8228 165.509 93.8228C166.074 93.8228 166.531 94.2818 166.531 94.8438V112.468Z" fill="black" fill-opacity="0.3"/>
<path d="M170.242 112.468C170.242 113.032 169.785 113.488 169.221 113.488C168.661 113.488 168.203 113.032 168.203 112.468V94.8438C168.203 94.2807 168.66 93.8228 169.221 93.8228C169.786 93.8228 170.242 94.2818 170.242 94.8438V112.468Z" fill="black" fill-opacity="0.3"/>
<path d="M173.952 112.468C173.952 113.032 173.495 113.488 172.932 113.488C172.366 113.488 171.912 113.032 171.912 112.468V94.8438C171.912 94.2807 172.365 93.8228 172.932 93.8228C173.495 93.8228 173.952 94.2818 173.952 94.8438V112.468Z" fill="black" fill-opacity="0.3"/>
<path d="M177.665 112.468C177.665 113.032 177.205 113.488 176.644 113.488C176.08 113.488 175.623 113.032 175.623 112.468V94.8438C175.623 94.2807 176.08 93.8228 176.644 93.8228C177.205 93.8228 177.665 94.2818 177.665 94.8438V112.468Z" fill="black" fill-opacity="0.3"/>
<path d="M181.376 112.468C181.376 113.032 180.918 113.488 180.355 113.488C179.789 113.488 179.332 113.032 179.332 112.468V94.8438C179.332 94.2807 179.789 93.8228 180.355 93.8228C180.918 93.8228 181.376 94.2818 181.376 94.8438V112.468Z" fill="black" fill-opacity="0.3"/>
<path d="M185.084 112.468C185.084 113.032 184.627 113.488 184.061 113.488C183.502 113.488 183.045 113.032 183.045 112.468V94.8438C183.045 94.2807 183.502 93.8228 184.061 93.8228C184.627 93.8228 185.084 94.2818 185.084 94.8438V112.468Z" fill="black" fill-opacity="0.3"/>
<path d="M188.793 112.468C188.793 113.032 188.339 113.488 187.775 113.488C187.211 113.488 186.756 113.032 186.756 112.468V94.8438C186.756 94.2807 187.211 93.8228 187.775 93.8228C188.339 93.8228 188.793 94.2818 188.793 94.8438V112.468Z" fill="black" fill-opacity="0.3"/>
<path d="M192.507 112.468C192.507 113.032 192.051 113.488 191.487 113.488C190.919 113.488 190.464 113.032 190.464 112.468V94.8438C190.464 94.2807 190.919 93.8228 191.487 93.8228C192.05 93.8228 192.507 94.2818 192.507 94.8438V112.468Z" fill="black" fill-opacity="0.3"/>
<path d="M162.469 103.318C166.915 105.798 172.511 106.6 177.465 105.239C184.502 103.301 190.114 98.7913 192.508 92.3993C192.34 92.3213 192.16 92.2773 191.966 92.2773H156.252C155.548 96.4333 159.065 101.418 162.469 103.318Z" fill="white" fill-opacity="0.25"/>
<path opacity="0.3" d="M188.677 131.438C188.677 131.438 188.841 131.467 189.127 131.548C189.404 131.638 189.841 131.732 190.335 131.926C190.827 132.124 191.419 132.403 192.059 132.78C192.71 133.144 193.458 133.569 194.23 134.096C194.985 134.618 195.886 135.23 196.589 135.902C197.33 136.575 198.093 137.306 198.843 138.096C199.592 138.89 200.353 139.719 201.068 140.611C201.806 141.483 202.493 142.416 203.185 143.344C203.834 144.298 204.391 145.288 204.927 146.284C205.469 147.271 205.957 148.272 206.399 149.258C207.291 151.228 207.979 153.151 208.453 154.859C208.92 156.574 209.2 158.059 209.333 159.133C209.42 159.659 209.424 160.109 209.453 160.398C209.474 160.696 209.472 160.859 209.472 160.859L209.062 161.105C209.062 161.105 208.751 160.635 208.202 159.816C207.664 158.993 206.861 157.833 205.955 156.411C205.043 154.991 203.979 153.335 202.838 151.561C202.269 150.675 201.681 149.756 201.082 148.827C200.472 147.903 199.902 146.93 199.24 146.021C197.944 144.187 196.65 142.355 195.431 140.637C194.824 139.776 194.237 138.944 193.679 138.156C193.146 137.346 192.526 136.689 192.001 136.036C190.919 134.759 190.08 133.64 189.435 132.896C188.747 132.19 188.354 131.788 188.354 131.788L188.677 131.438Z" fill="white"/>
</svg>
