<svg width="363" height="332" viewBox="0 0 363 332" fill="none" xmlns="http://www.w3.org/2000/svg">
<path d="M58.1144 316.796H277.258C312.705 286.093 335.141 240.769 335.141 190.191C335.141 97.7098 260.17 22.7368 167.688 22.7368C75.2064 22.7368 0.231445 97.7088 0.231445 190.191C0.231445 240.769 22.6684 286.093 58.1144 316.796Z" fill="#F5F5F5"/>
<path d="M17.9463 59.3628H33.0963" stroke="#479FC8" stroke-width="1.5924" stroke-miterlimit="10" stroke-linecap="round" stroke-linejoin="round"/>
<path d="M25.5215 66.9366V51.7876" stroke="#479FC8" stroke-width="1.5924" stroke-miterlimit="10" stroke-linecap="round" stroke-linejoin="round"/>
<path d="M20.165 54.0063L30.877 64.7174" stroke="#479FC8" stroke-width="1.5924" stroke-miterlimit="10" stroke-linecap="round" stroke-linejoin="round"/>
<path d="M20.165 64.7174L30.877 54.0063" stroke="#479FC8" stroke-width="1.5924" stroke-miterlimit="10" stroke-linecap="round" stroke-linejoin="round"/>
<path d="M320.826 283.492H335.974" stroke="#479FC8" stroke-width="1.5924" stroke-miterlimit="10" stroke-linecap="round" stroke-linejoin="round"/>
<path d="M328.399 291.065V275.917" stroke="#479FC8" stroke-width="1.5924" stroke-miterlimit="10" stroke-linecap="round" stroke-linejoin="round"/>
<path d="M323.044 278.135L333.756 288.846" stroke="#479FC8" stroke-width="1.5924" stroke-miterlimit="10" stroke-linecap="round" stroke-linejoin="round"/>
<path d="M323.044 288.846L333.756 278.135" stroke="#479FC8" stroke-width="1.5924" stroke-miterlimit="10" stroke-linecap="round" stroke-linejoin="round"/>
<path d="M240.562 22.7134H252.459" stroke="#479FC8" stroke-width="1.5924" stroke-miterlimit="10" stroke-linecap="round" stroke-linejoin="round"/>
<path d="M246.511 28.6622V16.7642" stroke="#479FC8" stroke-width="1.5924" stroke-miterlimit="10" stroke-linecap="round" stroke-linejoin="round"/>
<path d="M242.303 18.5063L250.716 26.9203" stroke="#479FC8" stroke-width="1.5924" stroke-miterlimit="10" stroke-linecap="round" stroke-linejoin="round"/>
<path d="M242.303 26.9203L250.716 18.5063" stroke="#479FC8" stroke-width="1.5924" stroke-miterlimit="10" stroke-linecap="round" stroke-linejoin="round"/>
<path d="M0.795898 249.718H12.6929" stroke="#479FC8" stroke-width="1.5924" stroke-miterlimit="10" stroke-linecap="round" stroke-linejoin="round"/>
<path d="M6.74414 255.667V243.769" stroke="#479FC8" stroke-width="1.5924" stroke-miterlimit="10" stroke-linecap="round" stroke-linejoin="round"/>
<path d="M2.53809 245.511L10.9511 253.925" stroke="#479FC8" stroke-width="1.5924" stroke-miterlimit="10" stroke-linecap="round" stroke-linejoin="round"/>
<path d="M2.53906 253.925L10.9511 245.511" stroke="#479FC8" stroke-width="1.5924" stroke-miterlimit="10" stroke-linecap="round" stroke-linejoin="round"/>
<path d="M304.291 132.532H316.19" stroke="#479FC8" stroke-width="1.5924" stroke-miterlimit="10" stroke-linecap="round" stroke-linejoin="round"/>
<path d="M310.24 138.482V126.583" stroke="#479FC8" stroke-width="1.5924" stroke-miterlimit="10" stroke-linecap="round" stroke-linejoin="round"/>
<path d="M306.032 128.327L314.446 136.74" stroke="#479FC8" stroke-width="1.5924" stroke-miterlimit="10" stroke-linecap="round" stroke-linejoin="round"/>
<path d="M306.032 136.74L314.446 128.327" stroke="#479FC8" stroke-width="1.5924" stroke-miterlimit="10" stroke-linecap="round" stroke-linejoin="round"/>
<path d="M137.92 6.84424H159.357" stroke="#479FC8" stroke-width="1.5924" stroke-miterlimit="10" stroke-linecap="round" stroke-linejoin="round"/>
<path d="M146.178 0.796387H167.247" stroke="#479FC8" stroke-width="1.5924" stroke-miterlimit="10" stroke-linecap="round" stroke-linejoin="round"/>
<path d="M16.2119 283.91H37.6499" stroke="#479FC8" stroke-width="1.5924" stroke-miterlimit="10" stroke-linecap="round" stroke-linejoin="round"/>
<path d="M24.4688 277.862H45.5408" stroke="#479FC8" stroke-width="1.5924" stroke-miterlimit="10" stroke-linecap="round" stroke-linejoin="round"/>
<path d="M312.052 93.4194H333.49" stroke="#479FC8" stroke-width="1.5924" stroke-miterlimit="10" stroke-linecap="round" stroke-linejoin="round"/>
<path d="M320.31 87.3716H341.38" stroke="#479FC8" stroke-width="1.5924" stroke-miterlimit="10" stroke-linecap="round" stroke-linejoin="round"/>
<path d="M332.606 242.686H354.043" stroke="#479FC8" stroke-width="1.5924" stroke-miterlimit="10" stroke-linecap="round" stroke-linejoin="round"/>
<path d="M340.864 236.639H361.934" stroke="#479FC8" stroke-width="1.5924" stroke-miterlimit="10" stroke-linecap="round" stroke-linejoin="round"/>
<path d="M64.8545 51.7871H86.2915" stroke="#479FC8" stroke-width="1.5924" stroke-miterlimit="10" stroke-linecap="round" stroke-linejoin="round"/>
<path d="M73.1123 45.7412H94.1823" stroke="#479FC8" stroke-width="1.5924" stroke-miterlimit="10" stroke-linecap="round" stroke-linejoin="round"/>
<path d="M251.969 80.2012H273.406" stroke="#479FC8" stroke-width="1.5924" stroke-miterlimit="10" stroke-linecap="round" stroke-linejoin="round"/>
<path d="M260.226 74.1543H281.296" stroke="#479FC8" stroke-width="1.5924" stroke-miterlimit="10" stroke-linecap="round" stroke-linejoin="round"/>
<path d="M18.4287 118.805H39.8687" stroke="#479FC8" stroke-width="1.5924" stroke-miterlimit="10" stroke-linecap="round" stroke-linejoin="round"/>
<path d="M26.6865 112.758H47.7595" stroke="#479FC8" stroke-width="1.5924" stroke-miterlimit="10" stroke-linecap="round" stroke-linejoin="round"/>
<path d="M26.9814 316.795H311.486" stroke="#479FC8" stroke-width="1.8588" stroke-miterlimit="10" stroke-linecap="round" stroke-linejoin="round"/>
<path d="M79.5195 322.595H185.689" stroke="#479FC8" stroke-width="1.8588" stroke-miterlimit="10" stroke-linecap="round" stroke-linejoin="round"/>
<path d="M193.812 322.595H223.03" stroke="#479FC8" stroke-width="1.8588" stroke-miterlimit="10" stroke-linecap="round" stroke-linejoin="round"/>
<path d="M228.68 322.595H252.443" stroke="#479FC8" stroke-width="1.8588" stroke-miterlimit="10" stroke-linecap="round" stroke-linejoin="round"/>
<path d="M122.218 330.722H240.562" stroke="#479FC8" stroke-width="1.8588" stroke-miterlimit="10" stroke-linecap="round" stroke-linejoin="round"/>
<path d="M167.842 313.496C240.978 313.496 300.267 254.208 300.267 181.071C300.267 107.935 240.978 48.6465 167.842 48.6465C94.7057 48.6465 35.417 107.935 35.417 181.071C35.417 254.208 94.7057 313.496 167.842 313.496Z" fill="white" stroke="#F5F5F5" stroke-width="3.0174" stroke-miterlimit="10" stroke-dasharray="4.53 4.53"/>
<path d="M104.784 187.765C111.971 186.737 115.817 184.859 116.213 182.173C117.319 174.679 122.304 145.253 122.354 144.957L126.509 145.015L129.01 200.775L129.195 199.722C129.204 199.678 130.092 195.18 131.865 190.421C132.913 187.608 134.063 185.249 135.284 183.409C136.929 180.927 138.708 179.366 140.746 178.635L144.082 177.434V187.644C144.6 188.635 147.164 190.825 150.45 190.978C155.811 191.229 173.919 190.719 174.101 190.714L174.248 190.71L174.393 190.715C174.594 190.721 179.693 190.843 183.38 188.511L188.155 184.945L190.001 185.748C190.029 185.76 190.074 185.78 190.132 185.809L194.656 146.698L198.725 146.752V199.903L200.098 194.412C200.142 194.277 201.241 191.059 203.221 187.335C205.935 182.232 209.005 178.813 212.301 177.173L214.796 175.937L220.085 184.19C220.117 184.243 223.405 189.837 230.346 190.355H241.264C254.081 169.638 248.507 142.195 228.183 128.073C208.723 114.553 182.573 118.045 167.196 135.279C151.803 118.045 125.616 114.636 106.157 128.156C86.4964 141.817 80.6614 167.966 91.9047 188.502C93.5025 188.504 99.7892 188.479 104.784 187.765Z" fill="#CE2E2E"/>
<path d="M229.575 192.567C220.199 191.479 216.307 185.232 216.088 184.871L213.073 180.081C208.578 183.958 205.309 191.627 204.309 194.695L198.812 217.899L194.582 217.788V182.062L193.583 191.216L189.464 191.162C189.464 189.887 189.032 188.962 188.522 188.324L186.774 189.632C182.044 192.656 175.418 192.68 174.239 192.658C172.524 192.706 155.564 193.171 150.045 192.913C143.172 192.592 140.292 188.282 140.168 188.099L140.198 187.955V183.022C138.644 184.603 137.482 187.028 136.096 190.744C134.376 195.359 133.437 199.729 133.404 199.895L129.88 219.773L125.711 219.714L123.233 164.638C122.03 171.879 120.842 179.108 120.369 182.313C119.847 185.848 114.845 188.386 105.907 189.651C99.5128 190.556 93.3552 190.476 93.0964 190.472L92.498 189.567C93.1269 190.648 93.8032 191.713 94.5294 192.758L167.196 264.734L239.837 192.829C239.886 192.758 239.934 192.686 239.983 192.686H229.822L229.575 192.567Z" fill="#BA2D2D"/>
<path d="M91.8037 188.284L92.4979 189.335C92.2952 188.986 92.0976 189.061 91.9051 188.284C91.8687 188.284 91.8351 188.284 91.8037 188.284Z" fill="#D8D8D8"/>
<path d="M239.982 192.686H240.166L241.384 190.355H241.263C240.855 191.132 240.428 192.168 239.982 192.686Z" fill="#D8D8D8"/>
<path d="M91.7099 188.515H91.5225C91.5361 188.515 91.6336 188.516 91.8027 188.516L91.802 188.515C91.8023 188.515 91.7092 188.515 91.7099 188.515Z" fill="#D8D8D8"/>
<path d="M230.347 190.356C223.406 189.838 220.124 184.244 220.092 184.191L214.809 175.882L212.327 177.146C209.031 178.785 205.986 182.218 203.272 187.322C201.292 191.046 200.143 194.27 200.099 194.406L198.726 199.903V146.752L194.657 146.698L190.083 185.809C190.024 185.781 190.004 185.761 189.976 185.748L188.144 184.946L183.375 188.512C179.688 190.843 174.592 190.721 174.391 190.715L174.249 190.71L174.104 190.714C173.922 190.719 155.811 191.229 150.45 190.979C147.164 190.825 144.601 188.635 144.083 187.645V177.434L140.747 178.635C138.709 179.366 136.927 180.928 135.281 183.409C134.06 185.249 132.912 187.609 131.864 190.422C130.091 195.18 129.204 199.678 129.195 199.723L129.01 200.775L126.509 145.015L122.354 144.957C122.304 145.253 117.32 174.679 116.214 182.173C115.817 184.86 111.972 186.737 104.785 187.765C99.79 188.479 93.5032 188.518 91.9053 188.517C92.0979 188.869 92.2955 189.219 92.4981 189.567L93.0961 190.472C93.3549 190.476 99.5117 190.556 105.906 189.651C114.844 188.386 119.844 185.849 120.366 182.313C120.839 179.108 122.023 171.88 123.227 164.639L125.698 219.715L129.852 219.774L133.349 199.896C133.381 199.73 134.376 195.36 136.097 190.744C137.482 187.028 138.645 184.604 140.199 183.022V187.955L140.168 188.099C140.293 188.282 143.23 192.593 150.103 192.914C155.621 193.172 172.554 192.707 174.269 192.659C175.448 192.681 182.06 192.656 186.791 189.632L188.534 188.324C189.043 188.962 189.476 189.887 189.476 191.163L193.585 191.216L194.582 182.062V217.788L198.812 217.895L204.301 194.687C205.301 191.619 208.574 183.941 213.069 180.063L216.087 184.836C216.306 185.197 220.199 191.48 229.575 192.567L229.822 192.687H239.983C240.429 192.169 240.856 191.133 241.264 190.356L230.347 190.356Z" fill="#D8D8D8"/>
<path d="M235.01 172.158C234.993 172.158 234.976 172.158 234.959 172.158C232.71 172.131 230.909 170.285 230.936 168.036C231.069 157.102 226.517 148.448 217.406 142.313C210.399 137.596 203.382 136.21 203.312 136.196C201.103 135.772 199.656 133.637 200.08 131.428C200.504 129.219 202.638 127.772 204.848 128.196C205.2 128.264 213.584 129.919 221.955 135.556C226.966 138.93 230.956 143.037 233.815 147.763C237.402 153.693 239.174 160.547 239.082 168.135C239.055 170.367 237.236 172.158 235.01 172.158Z" fill="#BA2D2D"/>
</svg>
